<svg xmlns="http://www.w3.org/2000/svg" viewBox="0 0 24 24"><path d="M22.479,11.478H18.528V10.161a.514.514,0,0,0-.092-.294L12.423,1.22a.535.535,0,0,0-.846,0L5.564,9.867a.514.514,0,0,0-.092.294v1.317H1.521a.516.516,0,0,0-.515.515V22.472a.516.516,0,0,0,.515.516H22.479a.516.516,0,0,0,.515-.516V11.993A.516.516,0,0,0,22.479,11.478ZM5.472,21.957H2.036V12.509H5.472Zm8.246,0H10.282V18.521h3.436ZM17.5,11.993v9.964H14.749V18.006a.515.515,0,0,0-.516-.515H9.767a.515.515,0,0,0-.516.515v3.951H6.5V10.323L12,2.417l5.5,7.906Zm4.467,9.964H18.528V12.509h3.436Z"/><path d="M11.485,7.355v.859H10.432a.516.516,0,0,0,0,1.031h1.053v2.577a.515.515,0,0,0,1.03,0V9.245h1.053a.516.516,0,0,0,0-1.031H12.515V7.355a.515.515,0,0,0-1.03,0Z"/></svg>