<svg xmlns="http://www.w3.org/2000/svg" viewBox="0 0 32 32"><title>market android app aplication phone</title><g id="market_android_app_aplication_phone" data-name="market android app aplication phone"><path d="M30.56,8.47a8,8,0,0,0-7-7,64.29,64.29,0,0,0-15.06,0,8,8,0,0,0-7,7,64.29,64.29,0,0,0,0,15.06,8,8,0,0,0,7,7,64.83,64.83,0,0,0,15.06,0,8,8,0,0,0,7-7A64.29,64.29,0,0,0,30.56,8.47ZM8.7,3.42a63.65,63.65,0,0,1,14.6,0A6,6,0,0,1,28.58,8.7c.09.76.14,1.53.2,2.3H26.5A2.5,2.5,0,0,1,24,8.5V7a1,1,0,0,0-2,0V8.5a2.5,2.5,0,0,1-5,0V7a1,1,0,0,0-2,0V8.5a2.5,2.5,0,0,1-5,0V7A1,1,0,0,0,8,7V8.5A2.5,2.5,0,0,1,5.5,11H3.22c.06-.77.11-1.54.2-2.3A6,6,0,0,1,8.7,3.42Zm-.7,25V18h6V28.94c-1.77-.05-3.54-.16-5.3-.36A5.44,5.44,0,0,1,8,28.43ZM28.58,23.3a6,6,0,0,1-5.28,5.28A63.55,63.55,0,0,1,16,29V18a2,2,0,0,0-2-2H8a2,2,0,0,0-2,2v9.56A6,6,0,0,1,3.42,23.3,63.24,63.24,0,0,1,3.09,13H5.5A4.46,4.46,0,0,0,9,11.29a4.44,4.44,0,0,0,7,0,4.44,4.44,0,0,0,7,0A4.46,4.46,0,0,0,26.5,13h2.41A63.24,63.24,0,0,1,28.58,23.3Z"/><path d="M24,16H21a2,2,0,0,0-2,2v3a2,2,0,0,0,2,2h3a2,2,0,0,0,2-2V18A2,2,0,0,0,24,16Zm-3,5V18h3v3Z"/></g></svg>