<svg xmlns="http://www.w3.org/2000/svg" viewBox="0 0 64 64"><title>Artboard-23</title><g id="School_Building" data-name="School Building"><path d="M44,40V25.75c2.3,1.29,14,7.87,14,7.87V40Z" style="fill:#fcd354"/><path d="M6,40V33.62L16,28c.0635-.0361,1.7432-.9844,4-2.25V40Z" style="fill:#fcd354"/><rect x="44" y="44" width="14" height="16" style="fill:#fcd354"/><rect x="6" y="44" width="14" height="16" style="fill:#fcd354"/><rect x="44" y="40" width="17" height="4" style="fill:#ffb125"/><rect x="3" y="40" width="17" height="4" style="fill:#ffb125"/><polygon points="20 60 20 21.75 32 15 44 21.75 44 60 20 60" style="fill:#ffe18d"/><circle cx="32" cy="29" r="7" style="fill:#fcd354"/><rect x="26" y="45" width="12" height="15" style="fill:#fcd354"/><rect x="32" y="1" width="10" height="7" style="fill:#ffb125"/><rect x="48" y="48" width="6" height="12" style="fill:#ffb125"/><rect x="9" y="47" width="8" height="14" rx="1" ry="1" style="fill:#ffb125"/><rect x="10" y="48" width="6" height="12" style="fill:#ffb125"/><polygon points="32 15 17.12 23.369 16 20 32 11 48 20 46.88 23.37 32 15" style="fill:#fcd354"/><rect x="1" y="60" width="62" height="3" style="fill:#494a59"/><rect x="24" y="41" width="16" height="4" style="fill:#ffb125"/><path d="M32,37a8,8,0,1,0-8-8A8.0092,8.0092,0,0,0,32,37Zm0-14a6,6,0,1,1-6,6A6.0066,6.0066,0,0,1,32,23Z" style="fill:#231e23"/><path d="M63,59H59V45h2a1,1,0,0,0,1-1V40a1,1,0,0,0-1-1H59V35.3344l1.51.8492a.9983.9983,0,0,0,1.3613-.3809.9984.9984,0,0,0-.3809-1.3613L58.52,32.77c-.0106-.0065-.0185-.0161-.0295-.0223C47.963,26.8321,45,25.1647,45,25.1647V23.46l1.39.7816a1.001,1.001,0,0,0,1.4395-.5557l1.12-3.37a1.0007,1.0007,0,0,0-.459-1.1865L33,10.4156V9h9a1,1,0,0,0,1-1V1a1,1,0,0,0-1-1H32a1,1,0,0,0-1,1v9.4156L15.51,19.1289a.9987.9987,0,0,0-.4585,1.1865l1.12,3.37a1,1,0,0,0,1.439.5557L19,23.46v1.705s.1461-.08-13.49,7.5834c-.0105.006-.0182.0151-.0284.0213L2.51,34.4414a1,1,0,1,0,.98,1.7422L5,35.3344V39H3a1,1,0,0,0-1,1v4a1,1,0,0,0,1,1H5V59H1a1,1,0,0,0-1,1v3a1,1,0,0,0,1,1H63a1,1,0,0,0,1-1V60A1,1,0,0,0,63,59Zm-6,0H55V48a1,1,0,0,0-1-1H48a1,1,0,0,0-1,1V59H45V45H57Zm-4,0H49V49h4Zm7-16H45V41H60Zm-3-4H45V27.46L57,34.21ZM33,2h8V7H33ZM17.209,20.4668,32,12.1475l14.791,8.3193-.4775,1.4375L32.49,14.1289a.9966.9966,0,0,0-.98,0L17.6865,21.9043ZM43,22.335V59H39V46h1a1,1,0,0,0,1-1V41a1,1,0,0,0-1-1H24a1,1,0,0,0-1,1v4a1,1,0,0,0,1,1h1V59H21V22.335l11-6.1875ZM27,59V46h4V59ZM25,44V42H39v2Zm8,2h4V59H33ZM7,34.21,19,27.46V39H7ZM4,41H19v2H4Zm3,4H19V59H17V48a1,1,0,0,0-1-1H10a1,1,0,0,0-1,1V59H7Zm8,14H11V49h4Zm47,3H2V61H62Z" style="fill:#231e23"/><path d="M33.293,31.707a1,1,0,0,0,1.414-1.414L33,28.5859V26a1,1,0,0,0-2,0v3a.9993.9993,0,0,0,.293.707Z" style="fill:#231e23"/></g></svg>