<?xml version="1.0" encoding="UTF-8"?>
<!DOCTYPE svg PUBLIC "-//W3C//DTD SVG 1.1//EN" "http://www.w3.org/Graphics/SVG/1.1/DTD/svg11.dtd">
<!-- Creator: CorelDRAW -->
<svg xmlns="http://www.w3.org/2000/svg" xml:space="preserve" width="2048px" height="2048px" style="shape-rendering:geometricPrecision; text-rendering:geometricPrecision; image-rendering:optimizeQuality; fill-rule:evenodd; clip-rule:evenodd"
viewBox="0 0 2048 2048"
 xmlns:xlink="http://www.w3.org/1999/xlink">
 <defs>
  <style type="text/css">
   <![CDATA[
    .fil2 {fill:none}
    .fil0 {fill:#424242}
    .fil1 {fill:#424242;fill-rule:nonzero}
   ]]>
  </style>
 </defs>
 <g id="Layer_x0020_1">
  <metadata id="CorelCorpID_0Corel-Layer"/>
  <path class="fil0" d="M1319.29 1330.23l0.142913 0.101575 -2.45906 3.45945c-2.5937,3.91654 -5.26182,7.69961 -8.00788,11.2831 -0.0413386,0.0543308 -0.0838583,0.109843 -0.126378,0.164173l-0.999213 1.40669c-5.74134,8.07875 -8.18386,18.098 -8.85473,27.8622 -0.72756,10.5945 2.27953,23.9114 3.11929,34.7752l12.3154 159.483 0.961418 -0.080315 0.679134 21.0331c0.683859,21.176 9.85985,39.1654 29.4083,48.5115 16.6276,7.95119 37.2803,7.663 53.8158,-0.389764 19.2662,-9.38387 29.2087,-26.9882 30.854,-48 0.0401575,-0.520867 0.0933072,-1.09488 0.116929,-1.65945l-12.0732 -196.273 117.321 -185.249 123.117 426.611c0.382677,1.3252 0.637796,2.7437 1.03819,4.03465 7.30749,22.7563 23.726,38.4803 48.0284,40.5638 7.27442,0.623623 14.6681,-0.0933072 21.7134,-1.99488 31.5402,-8.51103 47.7863,-35.7992 40.9394,-68.0457 -0.162992,-0.768898 -0.369685,-1.53543 -0.572835,-2.2937 -3.32599,-12.437 -6.22441,-25.0949 -9.20079,-37.6217 -4.71378,-19.8378 -9.41576,-39.6756 -14.2299,-59.4886 -12.1228,-49.8898 -24.3851,-99.7465 -36.4961,-149.64 -13.3382,-54.9496 -26.6433,-109.968 -39.0508,-165.135 -4.45394,-19.8059 -8.84883,-39.6945 -12.678,-59.6315 -0.982678,-5.11536 -2.28189,-11.4449 -3.28465,-17.7791l-1.32165 0.0129921 -0.120473 -12.5504c-0.0968505,-1.76339 -0.127559,-3.45118 -0.0732284,-5.02796 0.00472441,-0.158268 0.011811,-0.316536 0.0212599,-0.475985l-3.68386 -384.76c-0.00944883,-0.98504 0.0519685,-1.92402 0.0980316,-2.89725 -0.0377953,-18.5445 -5.70237,-35.902 -17.1673,-50.5382 -9.96851,-12.7252 -23.5949,-22.2142 -38.8725,-27.4347 -15.176,-5.18504 -31.6996,-6.04016 -47.2878,-2.20866 -17.2075,4.23071 -32.1107,16.4055 -44.3847,28.6795l-148.109 148.107 -10.2177 -1.76811c-41.804,-7.23071 -83.4709,-16.6335 -125.603,-21.6874 -21.8811,-2.62441 -40.4138,5.97284 -52.4209,24.4264 -4.26733,6.55867 -7.31103,13.963 -8.84056,21.639 -1.52717,7.65945 -1.56024,15.6496 -0.134646,23.3268 4.39607,23.6847 20.5347,38.6575 43.9524,43.8803 0.0472441,0.0106299 0.0944883,0.0212599 0.140551,0.0318898l158.767 28.0748c0.162992,0.0283465 0.33189,0.0602363 0.504331,0.0944883l1.7941 0.166536c8.0126,0.744095 15.8398,0.559843 23.7225,-1.18937 9.3378,-2.07166 19.6323,-8.72953 27.5693,-13.8957l62.7201 -40.8201 -13.3642 201.613 -4.16929 4.99607c-13.3146,15.9614 -25.1977,37.2319 -35.2158,55.4339 -14.5169,26.3752 -28.0429,53.3811 -41.6067,80.2583 -12.7087,25.1811 -25.0878,50.5536 -38.152,75.5505 -7.25788,13.8862 -15.2339,29.1095 -24.0815,42.9544z"/>
  <path class="fil1" d="M859.967 1164.11c-1.63701,2.82756 -1.3252,6.38977 0.683859,8.93977 3.5941,4.42323 10.363,3.913 13.2154,-1.01457l1.20473 -2.12599 1.18583 -2.1248 1.16575 -2.12362 1.15158 -2.12244 1.1315 -2.12244 1.11496 -2.12008 0.820867 -1.5874c1.43976,-2.80866 1.15394,-6.15827 -0.804331,-8.64449 -3.55512,-4.55079 -10.7492,-3.89292 -13.3854,1.24843l-0.820867 1.5874 -1.06536 2.03032 -1.08425 2.03032 -1.10197 2.03504 -1.12087 2.03622 -1.13622 2.0374 -1.15512 2.04095zm-124.691 -464.96c-5.83465,-5.46969 -15.313,0.18189 -13.1575,8.02087 0.400394,1.41969 1.16457,2.66693 2.24173,3.67677l0.569292 0.530315 1.91575 1.79291 1.90984 1.79528 1.9004 1.79291 1.89095 1.79528 1.88504 1.79764 1.47284 1.41142c2.5311,2.37284 6.13583,2.91851 9.23268,1.32874 4.81418,-2.47205 5.81339,-9.15591 1.84843,-12.8728l-1.50118 -1.4374 -1.91103 -1.82126 -1.91929 -1.82126 -1.92874 -1.82126 -1.93583 -1.8189 -1.9441 -1.8189 -0.569292 -0.530315zm45.8315 45.3945c-2.42126,-2.58307 -6.31063,-3.26103 -9.463,-1.64173 -4.74804,2.4378 -5.83229,8.72127 -2.18504,12.6118l0.825591 0.874016 1.69843 1.80827 1.69016 1.80945 1.67953 1.80945 1.67126 1.81063 1.65945 1.80945 1.55906 1.70906c6.25512,6.67205 16.904,-0.420473 13.1717,-8.76261 -0.351969,-0.742914 -0.784253,-1.39488 -1.33465,-2.00197l-1.5874 -1.74213 -1.69488 -1.84725 -1.70197 -1.8437 -1.7126 -1.84488 -1.72087 -1.84252 -1.72914 -1.84134 -0.825591 -0.874016zm42.4642 48.7559c-1.4315,-1.80236 -3.37087,-2.77323 -5.63977,-3 -6.98268,-0.511418 -11.2193,7.50001 -6.88938,12.952l0.284646 0.356693 1.44567 1.82599 1.43386 1.82362 1.42323 1.82717 1.41378 1.82599 1.40079 1.82599 1.3937 1.82953 0.879922 1.16575c4.47756,6.02717 14.2016,2.97756 14.3917,-4.65118 0,-1.87441 -0.485433,-3.46181 -1.60748,-4.97244l-0.917717 -1.21299 -1.42677 -1.87441 -1.44095 -1.87795 -1.45158 -1.87323 -1.45866 -1.87205 -1.47165 -1.87323 -1.47874 -1.86851 -0.284646 -0.356693zm37.5709 52.8993c-1.80827,-2.90906 -5.1378,-4.26496 -8.47442,-3.59764 -5.40827,1.18701 -8.03859,7.33938 -5.11063,12.0496l0.185433 0.296457 1.13976 1.84252 1.13032 1.84488 1.11732 1.84252 1.10669 1.84725 1.09606 1.84606 1.08307 1.84606 1.07126 1.84725 0.141732 0.245669c4.30158,7.42914 15.7547,3.89292 14.8961,-4.91103 -0.12874,-1.05118 -0.464174,-2.09646 -0.996851,-3.01654l-0.18189 -0.316536 -1.11142 -1.91339 -1.12323 -1.91457 -1.13386 -1.90984 -1.14449 -1.90866 -1.15748 -1.91103 -1.16811 -1.9063 -1.17992 -1.9063 -0.185433 -0.296457zm30.2906 57.7182c-1.03465,-2.43307 -3.19134,-4.20355 -5.78741,-4.72323 -6.28819,-1.25787 -11.4555,5.0563 -8.94568,10.9618l0.16063 0.377953 0.783071 1.86496 0.77126 1.86496 0.758268 1.86378 0.745276 1.86614 0.733465 1.86614 0.719292 1.86614 0.708662 1.86969 0.398032 1.07126c1.16575,3.18544 4.27796,5.31496 7.67127,5.23465 5.50512,-0.134646 9.23387,-5.59725 7.34292,-10.7669l-0.433465 -1.16339 -0.741733 -1.95709 -0.754725 -1.95827 -0.768898 -1.95591 -0.780709 -1.95354 -0.793701 -1.95354 -0.806694 -1.95 -0.818505 -1.94764 -0.16063 -0.377953zm19.6228 62.5241c-1.7752,-8.48268 -13.7599,-8.62205 -15.6839,-0.0732284 -0.216142,1.10906 -0.219685,2.06575 -0.0129921,3.17717l0.201969 1.0063 0.366142 1.88858 0.354331 1.89095 0.338977 1.89213 0.327166 1.89213 0.311811 1.88977 0.297638 1.89685 0.285827 1.89449 0.152362 1.06772c0.48189,3.45 3.14055,6.19725 6.57402,6.78308 5.3315,0.910631 10.0217,-3.6378 9.27402,-8.99174l-0.168898 -1.1811 -0.302362 -2.00788 -0.316536 -2.00551 -0.330709 -2.00788 -0.346063 -2.00551 -0.360236 -2.00079 -0.373229 -1.99961 -0.387402 -1.99961 -0.201969 -1.0063zm5.33504 65.5134c0.349607,-7.69134 -9.50552,-11.3847 -14.3256,-5.21457 -1.03228,1.37717 -1.58386,2.84292 -1.66181,4.56733l-0.00708662 0.219685 -0.0862205 1.92402 -0.0992127 1.92756 -0.114567 1.92874 -0.129921 1.92874 -0.144095 1.92992 -0.158268 1.93228 -0.174803 1.9311 -0.172441 1.7504c-0.742914,8.17796 9.64725,12.0945 14.4898,5.43544 0.829134,-1.22599 1.26142,-2.33858 1.42913,-3.81496l0.184252 -1.87087 0.184252 -2.0563 0.170079 -2.05276 0.153543 -2.05276 0.137008 -2.05158 0.121654 -2.04921 0.106299 -2.04567 0.090945 -2.04685 0.00708662 -0.219685zm-10.4693 64.9347c2.25709,-7.90158 -7.46103,-13.7587 -13.4528,-7.76694 -0.90945,0.97441 -1.55079,2.03977 -1.91811,3.32599l-0.403937 1.41732 -0.578741 1.97599 -0.594095 1.9748 -0.611811 1.98071 -0.625985 1.98071 -0.643701 1.98071 -0.660237 1.98543 -0.539764 1.58622c-1.15039,3.36733 0.034252,7.08662 2.94567,9.14174 4.34174,3.06496 10.4622,1.10787 12.1819,-3.92835l0.577559 -1.69725 0.69567 -2.09173 0.679134 -2.0941 0.661418 -2.08937 0.644882 -2.08701 0.629528 -2.09055 0.609449 -2.08701 0.403937 -1.41732z"/>
  <path class="fil1" d="M830.254 1150.15c-2.79567,7.64056 6.01182,14.1366 12.5563,9.02363 1.1185,-0.937796 1.87205,-1.98662 2.40355,-3.34725l0.609449 -1.62047 0.598819 -1.62047 0.584646 -1.61457 0.574016 -1.61457 0.559843 -1.61102 0.550394 -1.60748 0.536221 -1.60512 0.526772 -1.60512 0.512599 -1.60158 0.325985 -1.03819c1.00984,-3.26221 -0.0826772,-6.74292 -2.81103,-8.80985 -4.3689,-3.30945 -10.8177,-1.27087 -12.4417,3.97441l-0.325985 1.03819 -0.48189 1.50473 -0.493701 1.50591 -0.505512 1.51063 -0.517323 1.51536 -0.529134 1.5189 -0.540945 1.52008 -0.551575 1.5248 -0.563386 1.52599 -0.576378 1.53307zm-285.444 -362.831c-8.21221,-1.14567 -12.6579,9.43229 -5.67993,14.5075 1.03347,0.699213 2.16142,1.1563 3.4004,1.32874l0.433465 0.0614174 0.612993 0.0897638 0.627166 0.0933072 0.625985 0.0921261 0.612993 0.0921261 0.624804 0.0956694 0.623623 0.0956694 0.616536 0.0944883 0.622441 0.0980316 0.623623 0.0980316 0.605906 0.0968505 0.615355 0.100394 0.628347 0.102756 0.612993 0.100394 0.611811 0.101575 0.617717 0.103937 0.61063 0.103937 0.617717 0.106299 0.608268 0.103937 0.61063 0.10748 0.615355 0.108662 0.614174 0.108662 0.607087 0.108662 0.605906 0.111024 0.614174 0.111024 0.248032 0.0472441c3.51851,0.654331 6.9756,-1.08662 8.6067,-4.2626 2.38347,-4.76693 -0.434646,-10.4929 -5.68465,-11.4697l-0.283465 -0.0519685 -0.630709 -0.115748 -0.636615 -0.115748 -0.640158 -0.113386 -0.630709 -0.113386 -0.634252 -0.111024 -0.638977 -0.112205 -0.641339 -0.111024 -0.634252 -0.108662 -0.641339 -0.108662 -0.636615 -0.106299 -0.644882 -0.108662 -0.643701 -0.105118 -0.630709 -0.102756 -0.643701 -0.105118 -0.65315 -0.103937 -0.640158 -0.100394 -0.638977 -0.100394 -0.649607 -0.101575 -0.640158 -0.0980316 -0.643701 -0.0980316 -0.655512 -0.0992127 -0.64252 -0.0944883 -0.643701 -0.0956694 -0.657875 -0.0944883 -0.433465 -0.0614174zm63.6426 14.6268c-8.05631,-2.49331 -13.9677,7.23662 -8.18977,13.2142 0.940158,0.940158 1.96299,1.57559 3.22441,1.99606l0.179528 0.0578741 0.549213 0.180709 0.549213 0.180709 0.552756 0.184252 0.551575 0.183071 0.54567 0.183071 0.548032 0.185433 0.552756 0.188977 0.548032 0.186614 0.540945 0.186614 0.549213 0.190158 0.542126 0.187795 0.540945 0.190158 0.551575 0.193701 0.538583 0.190158 0.539764 0.19252 0.542126 0.194882 0.539764 0.193701 0.540945 0.196063 0.539764 0.197244 0.53504 0.194882 0.533859 0.197244 0.532678 0.198425 0.539764 0.201969 0.537402 0.200788 0.533859 0.201969 0.532678 0.200788 0.418111 0.16063c2.31024,0.901182 4.89804,0.634252 7.01339,-0.634252 5.67638,-3.50551 4.91103,-11.8878 -1.29449,-14.3091l-0.451181 -0.172441 -0.561024 -0.212599 -0.559843 -0.211417 -0.561024 -0.210236 -0.558662 -0.209055 -0.568111 -0.210236 -0.56693 -0.209055 -0.568111 -0.209055 -0.563386 -0.204331 -0.56693 -0.205512 -0.568111 -0.205512 -0.565748 -0.201969 -0.572835 -0.204331 -0.571654 -0.201969 -0.563386 -0.198425 -0.574016 -0.201969 -0.575197 -0.199606 -0.568111 -0.197244 -0.578741 -0.198425 -0.574016 -0.196063 -0.571654 -0.193701 -0.576378 -0.194882 -0.578741 -0.194882 -0.575197 -0.19252 -0.576378 -0.191339 -0.582284 -0.19252 -0.582284 -0.190158 -0.179528 -0.0578741zm59.8359 26.6516c-6.37441,-3.69095 -14.0445,2.72953 -11.4945,9.64961 0.594095,1.7811 1.95473,3.31418 3.56221,4.24489l1.5248 0.86693 1.71732 0.983859 1.71142 0.98504 1.70433 0.986221 1.69606 0.986221 1.69016 0.989765 1.68425 0.990946 1.6748 0.992127 0.298819 0.178347c7.25079,4.19764 15.215,-3.89764 10.9039,-11.0823 -0.705119,-1.12205 -1.57323,-1.97362 -2.70473,-2.65866l-0.329528 -0.197244 -1.7126 -1.01339 -1.71732 -1.00984 -1.72323 -1.00866 -1.7315 -1.00748 -1.7374 -1.00512 -1.74213 -1.00158 -1.7504 -1.00276 -1.5248 -0.86693zm54.8587 34.2886c-2.90197,-2.01496 -6.85276,-1.90158 -9.59765,0.343701 -4.13268,3.35788 -3.9189,9.74883 0.46063,12.7902l0.876379 0.607087 1.48347 1.03701 1.47992 1.03819 1.46693 1.03701 1.46102 1.04055 1.4563 1.0441 1.44685 1.04291 1.43858 1.04528 1.4315 1.04764 0.298819 0.219685c2.65866,1.9748 6.24686,2.07874 9.04135,0.322441 4.73504,-3.06378 4.99489,-9.82796 0.466536,-13.1917l-0.338977 -0.250394 -1.47402 -1.07835 -1.48347 -1.07599 -1.48701 -1.07362 -1.4941 -1.07008 -1.50354 -1.07126 -1.51417 -1.07008 -1.51536 -1.06417 -1.52362 -1.06299 -0.876379 -0.607087zm51.0591 40.2036c-6.56812,-5.77205 -16.1858,1.35709 -12.6366,9.29056 0.507874,1.04291 1.03583,1.76339 1.88386,2.55827l0.034252 0.0307087 1.20354 1.09724 1.19528 1.09843 1.18819 1.10079 1.17874 1.10079 1.17047 1.10315 1.16221 1.10551 1.15276 1.10669 1.14567 1.11024 1.14095 1.11142 0.800788 0.790158c1.79764,1.79764 4.45394,2.64095 6.95906,2.20276 6.43583,-1.09843 8.89843,-8.97284 4.29685,-13.5744l-0.857481 -0.844489 -1.18583 -1.15866 -1.19528 -1.15748 -1.20709 -1.1563 -1.21181 -1.15276 -1.22244 -1.15276 -1.22835 -1.14803 -1.23543 -1.14567 -1.24488 -1.14331 -1.25315 -1.14213 -0.034252 -0.0307087zm44.2347 48.3107c-5.09882,-6.86457 -15.9732,-2.07756 -14.2795,6.38977 0.244488,1.11496 0.696851,2.15669 1.37717,3.07323l0.381496 0.517323 0.852757 1.16929 0.844489 1.17165 0.83504 1.17284 0.82441 1.17402 0.817323 1.17874 0.809056 1.17874 0.797245 1.17992 0.790158 1.18228 0.78189 1.18583 0.77126 1.18465 0.284646 0.442914c4.67363,7.20591 15.9165,3.11575 14.6351,-5.63977 -0.19252,-1.09724 -0.557481,-2.01969 -1.14449,-2.96339l-0.336614 -0.523229 -0.825591 -1.26969 -0.833859 -1.26378 -0.842127 -1.2626 -0.853938 -1.26024 -0.861024 -1.25669 -0.869292 -1.25197 -0.881103 -1.25433 -0.889371 -1.24843 -0.896457 -1.24725 -0.907087 -1.24252 -0.381496 -0.517323zm31.5225 58.1245c-2.98465,-8.1567 -14.8925,-6.5941 -15.5398,2.25827 -0.0507874,1.06417 0.101575,2.04331 0.445276,3.04961l0.380315 1.07008 0.435827 1.25315 0.425197 1.25906 0.419292 1.26496 0.407481 1.26378 0.398032 1.26496 0.389764 1.27323 0.379134 1.27087 0.369685 1.27087 0.359055 1.27441 0.349607 1.27795 0.242126 0.904725c2.0563,7.84961 13.2709,8.02678 15.4854,-0.0271654 0.341339,-1.32874 0.340158,-2.69764 -0.00826772,-4.02638l-0.270473 -1.02047 -0.382677 -1.3937 -0.392126 -1.39016 -0.402756 -1.39134 -0.414567 -1.38425 -0.422835 -1.37953 -0.433465 -1.38071 -0.445276 -1.37717 -0.452363 -1.37126 -0.465355 -1.37244 -0.475985 -1.37126 -0.380315 -1.07008zm11.2335 65.5016c0,-8.35276 -10.9866,-11.191 -15.0366,-3.90118 -0.636615,1.20591 -0.93189,2.35158 -0.962599,3.71693l-0.00944883 1.37126 -0.0212599 1.37008 -0.0318898 1.37717 -0.0425197 1.38071 -0.0519685 1.37835 -0.0625985 1.38189 -0.0744095 1.39016 -0.0838583 1.38898 -0.0944883 1.39134 -0.105118 1.39843 -0.115748 1.40197 -0.00944883 0.0944883c-0.709843,7.80237 9.06733,11.8831 14.1225,5.85591 1.0311,-1.26969 1.65945,-2.72717 1.80827,-4.363l0.0188977 -0.212599 0.125197 -1.51536 0.114567 -1.51181 0.103937 -1.51181 0.090945 -1.51181 0.0791339 -1.50354 0.0696851 -1.50473 0.056693 -1.50354 0.0448819 -1.49646 0.034252 -1.49528 0.0236221 -1.49528 0.00944883 -1.37126z"/>
  <path class="fil1" d="M810.194 1158.03c0.714567,7.85434 11.3398,9.99568 15.0343,2.99646 0.740552,-1.33347 1.03347,-2.98347 0.896457,-4.49646l-0.185433 -1.89803 -0.196063 -1.88977 -0.207874 -1.87677 -0.218504 -1.86614 -0.230315 -1.85551 -0.240945 -1.84725 -0.252756 -1.83425 -0.262205 -1.8248 -0.212599 -1.40551c-1.4315,-8.79568 -13.7858,-9.1878 -15.7512,-0.451181 -0.187795,0.964961 -0.21378,1.81654 -0.0779528,2.79213l0.212599 1.40551 0.248032 1.71614 0.238583 1.73032 0.226772 1.73622 0.216142 1.75158 0.206693 1.76221 0.196063 1.7752 0.186614 1.78347 0.173622 1.79646zm-297.669 -184.07c-3.72638,0.338977 -6.613,3.0378 -7.24134,6.71812 -0.744095,5.20748 3.31772,9.58465 8.56418,9.22678l0.347244 -0.0283465 2.14961 -0.174803 2.14134 -0.170079 2.1378 -0.162992 2.13425 -0.157087 2.12362 -0.152362 2.12008 -0.145276 2.11299 -0.140551 0.523229 -0.0330709c2.66575,-0.18189 5.00197,-1.59685 6.37796,-3.89055 3.29528,-5.49331 -0.992127,-12.515 -7.36772,-12.0803l-0.568111 0.0377953 -2.15551 0.142913 -2.16024 0.147638 -2.16851 0.154725 -2.16969 0.161811 -2.17795 0.165354 -2.18622 0.172441 -2.18977 0.179528 -0.347244 0.0283465zm64.6441 -2.68347c-4.13859,0 -7.5319,3.01654 -8.00906,7.1256 -0.543308,4.67244 3.19252,8.87363 7.89568,8.87363l0.868111 0.00354331 1.95236 0.0177165 1.94528 0.0236221 1.93937 0.0307087 1.92874 0.0354331 1.92284 0.0437008 1.92166 0.0507874 1.90866 0.0555119 1.38543 0.0472441c8.92087,0.20315 11.5087,-11.9504 3.2941,-15.4087 -0.936615,-0.360236 -1.72795,-0.53504 -2.73189,-0.581103l-1.44449 -0.0496063 -1.97008 -0.0578741 -1.97126 -0.0507874 -1.98189 -0.046063 -1.9878 -0.0377953 -1.9937 -0.0307087 -1.99725 -0.0236221 -2.00669 -0.0177165 -0.868111 -0.00354331zm64.8815 4.43859c-8.10237,-1.13032 -12.4949,9.19725 -6.02126,14.2547 1.11496,0.844489 2.36339,1.39016 3.75355,1.58386l0.562205 0.0791339 1.70669 0.248032 1.69843 0.256299 1.69606 0.264567 1.68425 0.269292 1.67599 0.27874 1.67126 0.284646 1.66536 0.292914 1.65354 0.297638 1.42323 0.265748c2.55355,0.474804 5.16378,-0.294095 7.03583,-2.10118 4.66654,-4.50473 2.2937,-12.4382 -4.0689,-13.6217l-1.50354 -0.279921 -1.73622 -0.314173 -1.73858 -0.304725 -1.74685 -0.298819 -1.7563 -0.290551 -1.76457 -0.283465 -1.76693 -0.274016 -1.77638 -0.26811 -1.78465 -0.259843 -0.562205 -0.0791339zm63.743 15.6921c-6.5315,-2.38937 -12.7252,3.81024 -10.3158,10.35 0.882284,2.17559 2.42008,3.74528 4.61811,4.60276l1.06417 0.401575 1.39961 0.538583 1.3878 0.544489 1.37835 0.551575 1.3748 0.562205 1.36299 0.568111 1.35473 0.576378 1.35 0.584646 1.33819 0.591733 1.32874 0.598819 0.907087 0.416929c7.36654,3.31418 14.4189,-4.90394 10.037,-11.6764 -0.863386,-1.27559 -1.91103,-2.17559 -3.30236,-2.83701l-1.01339 -0.466536 -1.4374 -0.648426 -1.44449 -0.636615 -1.44921 -0.629528 -1.46102 -0.62126 -1.46693 -0.61063 -1.47402 -0.602363 -1.48465 -0.596457 -1.49173 -0.584646 -1.49646 -0.576378 -1.06417 -0.401575zm57.6296 32.987c-2.77795,-2.35748 -6.80788,-2.55473 -9.79017,-0.45 -4.26378,3.00945 -4.5626,9.25513 -0.577559,12.6366l0.50315 0.424016 1.02992 0.884646 1.02165 0.891733 1.00866 0.897638 1.00158 0.907087 0.99567 0.918898 0.983859 0.924804 0.975591 0.933072 0.966142 0.941339 0.957875 0.950788 0.950788 0.961418 0.713386 0.734646c1.26969,1.31221 2.84882,2.11063 4.65473,2.3752 7.57678,0.947245 12.0815,-7.91457 6.87284,-13.4705l-0.814961 -0.840946 -1.05236 -1.06299 -1.06181 -1.05473 -1.07244 -1.04528 -1.08189 -1.03465 -1.09016 -1.02402 -1.09961 -1.01339 -1.10787 -1.0063 -1.12205 -0.996851 -1.12559 -0.983859 -1.13622 -0.97441 -0.50315 -0.424016zm41.2311 52.4965c-3.54095,-6.90591 -13.7091,-5.38229 -15.0543,2.30788 -0.258662,1.72323 -0.0212599,3.27992 0.744095,4.84961l0.119291 0.236221 0.636615 1.2874 0.627166 1.29685 0.620079 1.30984 0.609449 1.31693 0.598819 1.32874 0.590552 1.33583 0.579922 1.34764 0.572835 1.36063 0.563386 1.3689 0.551575 1.37717 0.135827 0.347244c2.86536,7.34292 13.5142,6.65434 15.313,-1.33937 0.269292,-1.5378 0.184252,-2.96103 -0.388583,-4.42914l-0.183071 -0.467717 -0.603544 -1.50709 -0.615355 -1.49646 -0.622441 -1.4811 -0.636615 -1.47756 -0.647245 -1.46575 -0.657875 -1.45394 -0.668504 -1.44449 -0.676772 -1.43268 -0.688583 -1.42441 -0.700394 -1.41496 -0.119291 -0.236221z"/>
  <path class="fil1" d="M451.328 1491.26c-2.69173,-8.38701 -11.6752,-13.0051 -20.0622,-10.3134 -8.38701,2.69173 -13.0051,11.6752 -10.3134,20.0622 8.7756,27.2469 2.75788,59.6906 -2.85473,89.9552 -6.40158,34.5118 -12.3484,66.5788 1.28976,93.1702 4.00276,7.83544 13.6016,10.9406 21.437,6.9378 7.83544,-4.00276 10.9406,-13.6016 6.9378,-21.437 -8.67638,-16.9169 -3.67441,-43.8922 1.71024,-72.9213 6.31772,-34.063 13.089,-70.5733 1.85551,-105.454z"/>
  <path class="fil1" d="M439.715 1505.97c-19.8284,4.25433 -40.48,4.16929 -60.3922,-0.42874 -19.6583,-4.54134 -38.6268,-13.461 -55.4162,-26.9209 -16.7291,-13.4091 -29.5382,-29.9717 -38.2559,-48.1902 -9.03308,-18.8776 -13.6228,-39.4949 -13.5886,-60.1784l15.9378 0 -15.9992 -0.0271654c0.0129921,-8.08111 6.01772,-14.7508 13.8012,-15.8209 19.8307,-4.25788 40.487,-4.17284 60.4028,0.426378 19.6571,4.54134 38.628,13.461 55.4174,26.9209 16.728,13.4102 29.5382,29.974 38.2559,48.1914 9.03308,18.8776 13.6228,39.4949 13.5874,60.1784l-15.9378 0 15.9992 0.0283465c-0.0141732,8.08347 -6.02245,14.7555 -13.8118,15.8209z"/>
  <path class="fil1" d="M475.402 1506.71c-13.1823,3.04607 -26.8571,3.13465 -40.0134,0.382677 -7.81182,-1.04646 -13.8449,-7.73032 -13.8579,-15.8303l15.9992 -0.0259843 -15.9378 0c-0.022441,-13.8614 3.05551,-27.6839 9.11457,-40.3453 5.85355,-12.2339 14.4413,-23.3457 25.6477,-32.328 11.2665,-9.0319 23.9988,-15.0177 37.1918,-18.0662 13.1823,-3.0437 26.8571,-3.13465 40.0134,-0.382677 7.81182,1.04528 13.8437,7.72796 13.8579,15.828l-15.9992 0.0283465 15.9378 0c0.0236221,13.8614 -3.05551,27.6839 -9.11339,40.3441 -5.85473,12.235 -14.4437,23.3469 -25.6488,32.3292 -11.2665,9.0319 -23.9977,15.0189 -37.1918,18.0662z"/>
  <path class="fil1" d="M609.342 1311.64l454.976 0c17.6728,0 32.0008,14.328 32.0008,32.0008l-3.03425 31.4173c-7.39134,-1.28386 -14.9339,-1.94173 -22.5579,-1.94173 -34.8721,0 -68.0516,13.7504 -92.7048,38.4036 -22.6382,22.637 -36.0827,52.4693 -38.1296,84.1938l-241.125 0c-5.03859,-12.3165 -12.5138,-23.6339 -22.1433,-33.2622 -19.0406,-19.0417 -44.6764,-29.6658 -71.6091,-29.6658 -10.5402,0 -20.8831,1.62874 -30.7087,4.75158l3.03425 -93.8965c0,-17.6728 14.328,-32.0008 32.0008,-32.0008z"/>
  <path class="fil1" d="M862.925 1266.62c0,-17.6728 -29.4319,-32.0008 -47.1048,-32.0008 -17.6728,0 -51.7926,14.328 -51.7926,32.0008l19.7917 48.7607c0,17.6728 14.328,32.0008 32.0008,32.0008 17.6728,0 32.0008,-14.328 32.0008,-32.0008l15.1039 -48.7607z"/>
  <path class="fil1" d="M605.015 1452.78c22.4386,0 42.7583,9.09804 57.4678,23.8075 14.7071,14.7071 23.8075,35.028 23.8075,57.4666 0,22.441 -9.1004,42.7583 -23.8075,57.4678 -14.7095,14.7095 -35.0292,23.8075 -57.4678,23.8075 -22.4386,0 -42.7595,-9.1004 -57.4666,-23.8075 -14.7095,-14.7095 -23.8075,-35.0292 -23.8075,-57.4678 0,-22.4386 9.09804,-42.7571 23.8075,-57.4666 14.7071,-14.7071 35.028,-23.8075 57.4666,-23.8075zm12.2173 69.0579c-3.12284,-3.12284 -7.44449,-5.0563 -12.2173,-5.0563 -4.77284,0 -9.09331,1.93347 -12.2162,5.0563 -3.12284,3.12284 -5.0563,7.44331 -5.0563,12.2162 0,4.77284 1.93347,9.0945 5.0563,12.2173 3.12284,3.12284 7.44331,5.0563 12.2162,5.0563 4.77284,0 9.0945,-1.93347 12.2173,-5.0563 3.12284,-3.12284 5.0563,-7.44449 5.0563,-12.2173 0,-4.77284 -1.93347,-9.09331 -5.0563,-12.2162z"/>
  <path class="fil1" d="M1070.73 1393.11c30.6756,0 58.4563,12.4406 78.5623,32.5465 20.1095,20.1095 32.5465,47.8867 32.5465,78.5623 0,30.6756 -12.437,58.454 -32.5465,78.5634 -20.1059,20.1059 -47.8867,32.5465 -78.5623,32.5465 -30.6768,0 -58.454,-12.437 -78.5634,-32.5465 -20.1083,-20.1095 -32.5465,-47.8867 -32.5465,-78.5634 0,-30.6756 12.4406,-58.4563 32.5465,-78.5623 20.1095,-20.1083 47.8878,-32.5465 78.5634,-32.5465zm16.7008 94.4079c-4.26851,-4.26851 -10.1752,-6.91182 -16.7008,-6.91182 -6.52441,0 -12.4323,2.64331 -16.702,6.91182 -4.26851,4.26969 -6.91182,10.1764 -6.91182,16.7008 0,6.52678 2.64331,12.4335 6.91182,16.702 4.26969,4.26969 10.1764,6.913 16.702,6.913 6.5256,0 12.4323,-2.64331 16.7008,-6.913 4.26969,-4.26851 6.913,-10.1776 6.913,-16.702 0,-6.52441 -2.64331,-12.4311 -6.913,-16.7008z"/>
  <path class="fil1" d="M1152.39 892.973c16.7752,-5.45315 25.9536,-23.4756 20.5004,-40.2508 -5.45315,-16.7752 -23.4756,-25.9536 -40.2508,-20.5004l-78.6497 25.8697 9.8752 30.3756 -9.99804 -30.3981c-14.2725,4.6937 -23.0091,18.4677 -21.9166,32.8063l-6.06615 436.253c-0.206693,17.6043 13.8957,32.0445 31.5,32.2512 17.6043,0.206693 32.0445,-13.8957 32.2512,-31.5l5.78741 -416.169 56.967 -18.7382z"/>
  <path class="fil1" d="M1491.54 404.983c19.2732,-19.2732 45.8977,-31.1941 75.3012,-31.1941 29.4036,0 56.0292,11.9209 75.3012,31.1941 19.2732,19.2709 31.1953,45.8953 31.1953,75.3001 0,29.4036 -11.9221,56.0292 -31.1941,75.3024 -19.2732,19.2732 -45.8977,31.1941 -75.3024,31.1941 -29.4036,0 -56.028,-11.9209 -75.3012,-31.1953 -19.2732,-19.2721 -31.1941,-45.8965 -31.1941,-75.3012 0,-29.4024 11.9209,-56.028 31.1941,-75.3001z"/>
  <path class="fil0" d="M683.788 1213.29l259.376 0c18.3343,0 33.3331,14.9988 33.3331,33.3331l0 33.3343 -326.042 0 0 -33.3343c0,-18.3343 14.9988,-33.3331 33.3331,-33.3331z"/>
 </g>
 <rect class="fil2" width="2048" height="2048"/>
</svg>
